<svg xmlns="http://www.w3.org/2000/svg" xmlns:xlink="http://www.w3.org/1999/xlink" width="120" height="305" viewBox="0 0 120 305"><svg data-name="Слой 2" width="78" height="72" viewBox="0 0 78 72" id="calendar" y="0"><path fill="none" stroke="#9056a3" stroke-miterlimit="10" stroke-width="2" d="M1 5.39h58.59v11.68H1zm33.07 49.32H2.14V21.7m57.45 0v7.68M9.47 0v11.23M48.38 0v11.23"></path><ellipse cx="57.32" cy="51.69" rx="19.68" ry="19.31" fill="none" stroke="#9056a3" stroke-miterlimit="10" stroke-width="2"></ellipse><path fill="none" stroke="#9056a3" stroke-miterlimit="10" stroke-width="2" d="M67.62 47.53h-6.98v-6.85h-6.87v6.85h-6.98v6.74h6.98v6.85h6.87v-6.85h6.98v-6.74zm-57.58-21.9h5.04v4.38h-5.04zm9.38 0h5.03v4.38h-5.03zm9.39 0h5.03v4.38h-5.03zm9.38 0h5.04v4.38h-5.04zm-28.15 7.63h5.04v4.38h-5.04zm9.38 0h5.03v4.38h-5.03zm9.39 0h5.03v4.38h-5.03zm9.38 4.38v-4.38h5.04m-33.19 7.63h5.04v4.38h-5.04zm9.38 0h5.03v4.38h-5.03zm9.39 0h5.03v4.38h-5.03zm18.77-10.88v-4.38h5.03"></path></svg><svg data-name="Слой 2" width="120" height="75" viewBox="0 0 120 75" id="clinic" y="72"><title>clinic</title><path fill="none" stroke="#9056a3" stroke-miterlimit="10" stroke-width="2" d="M110.69 14.85V64.5H68.03V14.85"></path><path fill="none" stroke="#9056a3" stroke-miterlimit="10" stroke-width="2" d="M77.59 53.21h24.48V64.5H77.59zM61.46 64.85h56.04v6.35H61.46zm20.03-50H64.77V7.56h17.09m16.2 0h16.25v7.29H97.63"></path><ellipse cx="89.65" cy="11.15" rx="8.57" ry="8.65" fill="none" stroke="#9056a3" stroke-miterlimit="10" stroke-width="2"></ellipse><path fill="none" stroke="#9056a3" stroke-miterlimit="10" stroke-width="2" d="M74.21 22.73h4.43v6.24h-4.43zm8.51 0h4.43v6.24h-4.43zm9.91 0h4.43v6.24h-4.43zm8.51 0h4.43v6.24h-4.43zm-26.93 9.3h4.43v6.24h-4.43zm8.51 0h4.43v6.24h-4.43zm9.91 0h4.43v6.24h-4.43zm8.51 0h4.43v6.24h-4.43zm-26.93 9.29h4.43v6.24h-4.43zm8.51 0h4.43v6.24h-4.43zm9.91 0h4.43v6.24h-4.43zm8.51 0h4.43v6.24h-4.43z"></path><path fill="#9056a3" d="M88.31 6.26h2.33v10.12h-2.33z"></path><path fill="#9056a3" d="M84.47 10.15h10.02v2.35H84.47z"></path><ellipse cx="11.19" cy="28.98" rx="3.67" ry="5.05" fill="none" stroke="#9056a3" stroke-miterlimit="10" stroke-width="2"></ellipse><path d="M9.39 33.33s-5.79 1.9-6.46 2.8-.35 15.16-.35 15.16.3 1.57 1.63 1.57" fill="none" stroke="#9056a3" stroke-miterlimit="10" stroke-width="2"></path><path fill="none" stroke="#9056a3" stroke-miterlimit="10" stroke-width="2" d="M6 40.47V71.6l.81.9h2.05l1.18-1.2V53.57l.74-.75h1.12l.59.75v17.51l.52 1.12h2.54l.94-.6V40.47"></path><path fill="none" stroke="#9056a3" stroke-miterlimit="10" stroke-width="2" d="M13.26 33.16l5.53 2.52.67.82v8.16l7.79 4.27.51 1.12-1.26 1.35-8.6-4.57m16.74-7.15h23.05"></path><path fill="#9056a3" d="M38.62 44.58l.82-.88-4.34-4.02 4.34-4.03-.82-.88-5.28 4.91 5.28 4.9zm15.09 0l-.82-.88 4.33-4.02-4.33-4.03.82-.88 5.28 4.91-5.28 4.9z"></path></svg><svg data-name="Слой 2" width="74" height="74" viewBox="0 0 74 74" id="family" y="147"><title>family</title><path d="M22.16 13.25a7.5 7.5 0 1 1-7.5-7.5 7.5 7.5 0 0 1 7.5 7.5zm-11.74 7.04a4.6 4.6 0 0 0-3.26 2.2c-1.09 2-5.65 10.87-5.65 12.61S1.08 39.67 5 42.93M9.12 28.8l-6.3 27.61v1.74h21.73l1.08-1.52L20.2 28.8m-.43-8.06a14.37 14.37 0 0 1 4.56 6.53c1.52 4.35 5.21 14.57 5.21 16.2a3.56 3.56 0 0 1-3.91 3.15M10.42 61.85l1.09 10.65h6.3l.73-10.35" fill="none" stroke="#9056a3" stroke-linecap="round" stroke-linejoin="bevel" stroke-width="2"></path><ellipse cx="59.97" cy="8.77" rx="7.26" ry="7.27" fill="none" stroke="#9056a3" stroke-linecap="round" stroke-linejoin="bevel" stroke-width="2"></ellipse><path d="M55 15.27s-5.82 1.23-7 4.3-.77 23.36-.77 23.36m17.91-27.66s5.68 1.69 6.44 3.22.92 25 .92 25a6.17 6.17 0 0 1-4.3 3.18" fill="none" stroke="#9056a3" stroke-linecap="round" stroke-linejoin="bevel" stroke-width="2"></path><path fill="none" stroke="#9056a3" stroke-linecap="round" stroke-linejoin="bevel" stroke-width="2" d="M67.23 25.71v44.22l-1.17 1.38h-4.3l-1.79-1.84V50.43m-.82 20.11l-1.23.77h-4.44l-.77-1.84V25.71"></path><circle cx="38.13" cy="43.06" r="3.99" fill="none" stroke="#9056a3" stroke-linecap="round" stroke-linejoin="bevel" stroke-width="2"></circle><rect x="32.61" y="50.89" width="10.43" height="12.28" rx="1.43" ry="1.43" fill="none" stroke="#9056a3" stroke-linecap="round" stroke-linejoin="bevel" stroke-width="2"></rect><path fill="none" stroke="#9056a3" stroke-linecap="round" stroke-linejoin="bevel" stroke-width="2" d="M28 46.04l4.61 4.85m10.43 0l4.06-4.85M34.91 63.17v9.33m5.83-9.33v9.33"></path></svg><svg data-name="Слой 2" width="98.26" height="83.86" viewBox="0 0 98.26 83.86" id="lang" y="221"><title>lang</title><path d="M61 68.14a34 34 0 0 1-11.21 2.09c-16.47 0-29.81-12.83-29.81-28.65a27.62 27.62 0 0 1 1-7.45m19.11-19.66a30.87 30.87 0 0 1 9.65-1.53c16.46 0 29.81 12.83 29.81 28.65a27.61 27.61 0 0 1-1.47 8.91" fill="none" stroke="#9056a3" stroke-miterlimit="10" stroke-width="2"></path><path d="M49.74 70.06V12.94s-14.35 8.28-14.35 28.64 13.56 28.48 13.56 28.48" fill="none" stroke="#9056a3" stroke-linejoin="round" stroke-width="2"></path><path d="M49.74 12.94v57.12s14.35-8.28 14.35-28.65-13.56-28.47-13.56-28.47" fill="none" stroke="#9056a3" stroke-linecap="round" stroke-linejoin="round" stroke-width="2"></path><path fill="#68c399" stroke="#9056a3" stroke-miterlimit="10" stroke-width="2" d="M20.01 41.5h59.45"></path><path d="M71.82 22.34s-2.73 7.59-22.88 7.59A42.72 42.72 0 0 1 37 28.46m-9.35 32.37s2.73-7.59 22.88-7.59c7 0 11.72 1.16 15 2.56" fill="none" stroke="#9056a3" stroke-miterlimit="10" stroke-width="2"></path><path d="M40.62 18.39c0 8.43-7.11 15.26-15.88 15.26a16.33 16.33 0 0 1-7.52-1.81c-1.32-.68-8.69 1.81-8.69 1.81s3.1-6.51 2.36-7.77a14.73 14.73 0 0 1-2-7.5C8.85 10 16 3.13 24.73 3.13S40.62 10 40.62 18.39zM61.39 66c0 8.43 7.11 15.26 15.88 15.26a16.33 16.33 0 0 0 7.52-1.81c1.32-.68 8.69 1.81 8.69 1.81s-3.1-6.51-2.36-7.77a14.73 14.73 0 0 0 2-7.5c0-8.43-7.11-15.26-15.88-15.26S61.39 57.6 61.39 66zm-20-63.52s2.86-1 9.36-1c8.14 0 37.19 7.53 39 33.3" fill="none" stroke="#9056a3" stroke-miterlimit="10" stroke-width="2"></path><path fill="#9056a3" d="M78.8 28.19l1.53-1.85 9.09 7.57 6.89-9.63 1.96 1.4-8.39 11.72-11.08-9.21z"></path><path d="M58.85 80.14a36.85 36.85 0 0 1-10.17 1.36c-7.92 0-38.62-7.07-40.14-32.78" fill="none" stroke="#9056a3" stroke-miterlimit="10" stroke-width="2"></path><path fill="#9056a3" d="M19.49 55.42l-1.55 1.84-9.03-7.64-6.97 9.56L0 57.77l8.49-11.65 11 9.3zm-1.07-40.74a13.2 13.2 0 0 1 2.23-.17 3.89 3.89 0 0 1 2.5.62 1.94 1.94 0 0 1 .7 1.57 2.06 2.06 0 0 1-1.48 1.94 1.94 1.94 0 0 1 1.13 1.5 19.14 19.14 0 0 0 .64 2.17h-1.52a9.62 9.62 0 0 1-.54-1.84c-.24-1-.61-1.34-1.45-1.36h-.74v3.2h-1.47zm1.47 3.43h.88c1 0 1.61-.51 1.61-1.28s-.61-1.25-1.57-1.25a4.42 4.42 0 0 0-.91.07zm6.78-3.55v4.54c0 1.52.66 2.23 1.66 2.23S30 20.62 30 19.1v-4.54h1.48V19c0 2.4-1.29 3.46-3.23 3.46s-3.09-1-3.09-3.45v-4.45z"></path></svg></svg>